<?xml version="1.0" encoding="iso-8859-1"?>
<!-- Generator: Adobe Illustrator 16.0.0, SVG Export Plug-In . SVG Version: 6.00 Build 0)  -->
<!DOCTYPE svg PUBLIC "-//W3C//DTD SVG 1.1//EN" "http://www.w3.org/Graphics/SVG/1.1/DTD/svg11.dtd">
<svg version="1.1" id="Capa_1" xmlns="http://www.w3.org/2000/svg" xmlns:xlink="http://www.w3.org/1999/xlink" x="0px" y="0px"
	 width="612.01px" height="612.01px" viewBox="0 0 612.01 612.01" style="enable-background:new 0 0 612.01 612.01;"
	 xml:space="preserve">
<g>
	<g id="Shape_358">
		<g>
			<path d="M30.605,20.39h316.2c5.631,0,10.2-4.56,10.2-10.18c0-5.651-4.569-10.21-10.2-10.21h-326.4
				c-11.271,0-20.4,9.129-20.4,20.39v408.01c0,11.261,9.129,20.391,20.4,20.391h244.8v142.83h-163.2c-5.63,0-10.2,4.56-10.2,10.18
				c0,5.641,4.57,10.21,10.2,10.21h244.8c5.631,0,10.2-4.569,10.2-10.21c0-5.62-4.569-10.18-10.2-10.18h-61.2V448.79h61.2
				c5.631,0,10.2-4.56,10.2-10.18c0-5.651-4.569-10.211-10.2-10.211h-316.2c-5.63,0-10.2-4.559-10.2-10.199V30.6
				C20.405,24.959,24.975,20.39,30.605,20.39z M561.005,204.02h-132.6c-5.631,0-10.2,4.549-10.2,10.18
				c0,5.661,4.569,10.21,10.2,10.21h132.6c5.631,0,10.2-4.56,10.2-10.21C571.205,208.58,566.636,204.02,561.005,204.02z
				 M494.705,428.399c-8.446,0-15.3,6.854-15.3,15.32c0,8.415,6.854,15.28,15.3,15.28c8.445,0,15.3-6.865,15.3-15.28
				C510.005,435.254,503.161,428.399,494.705,428.399z M591.604,0h-193.8c-11.261,0-20.399,9.129-20.399,20.39v571.23
				c0,11.24,9.129,20.39,20.399,20.39h193.8c11.271,0,20.4-9.149,20.4-20.39V20.39C612.005,9.129,602.876,0,591.604,0z
				 M591.604,581.41c0,5.62-4.569,10.21-10.199,10.21h-173.4c-5.631,0-10.2-4.59-10.2-10.21V30.6c0-5.641,4.569-10.21,10.2-10.21
				h173.4c5.63,0,10.199,4.569,10.199,10.21V581.41z M561.005,163.23h-132.6c-5.631,0-10.2,4.56-10.2,10.18
				c0,5.641,4.569,10.21,10.2,10.21h132.6c5.631,0,10.2-4.569,10.2-10.21C571.205,167.779,566.636,163.23,561.005,163.23z
				 M561.005,40.8h-132.6c-5.631,0-10.2,4.569-10.2,10.21v61.19c0,5.641,4.569,10.21,10.2,10.21h132.6c5.631,0,10.2-4.57,10.2-10.21
				V51.01C571.205,45.369,566.636,40.8,561.005,40.8z M540.604,102h-91.8c-10.098,0.316-10.2-1.071-10.2-10.2V71.42
				c-0.315-10.118,0.429-9.904,10.2-10.21h91.8c9.456,0.306,9.884,0.745,10.2,10.21v20.39
				C551.121,101.571,550.061,101.684,540.604,102z"/>
		</g>
	</g>
</g>
<g>
</g>
<g>
</g>
<g>
</g>
<g>
</g>
<g>
</g>
<g>
</g>
<g>
</g>
<g>
</g>
<g>
</g>
<g>
</g>
<g>
</g>
<g>
</g>
<g>
</g>
<g>
</g>
<g>
</g>
</svg>
